<?xml version="1.0" encoding="iso-8859-1"?>
<!-- Uploaded to: SVG Repo, www.svgrepo.com, Generator: SVG Repo Mixer Tools -->
<svg height="800px" width="800px" version="1.1" id="Capa_1" xmlns="http://www.w3.org/2000/svg" xmlns:xlink="http://www.w3.org/1999/xlink" 
	 viewBox="0 0 325.122 325.122" xml:space="preserve">
<g>
	<path style="fill:#010002;" d="M174.145,22.143c-3.454-3.427-8.121-5.347-12.983-5.347c-0.027,0-0.06,0-0.092,0
		c-4.895,0.027-9.584,1.996-13.021,5.483L5.311,166.855c-7.147,7.239-7.071,18.906,0.169,26.048
		c7.239,7.152,18.901,7.076,26.053-0.163l7.941-8.044v102.57c0,11.629,9.426,21.055,21.055,21.055h90.299v-90.468h22.588v90.473
		h91.186c11.623,0,21.049-9.426,21.049-21.055V184.848l8.072,8.023c3.59,3.568,8.284,5.347,12.983,5.347
		c4.732,0,9.469-1.811,13.065-5.434c7.169-7.218,7.131-18.884-0.087-26.053L174.145,22.143z M248.802,271.486h-38.552v-69.424
		c0-11.629-9.426-21.049-21.055-21.049h-54.162c-11.629,0-21.055,9.42-21.055,21.049v69.424H76.313v-99.018l85.578-85.633
		l86.911,83.207C248.802,170.042,248.802,271.486,248.802,271.486z"/>
</g>
</svg>